<svg width="36" height="36" viewBox="0 0 36 36" fill="none" xmlns="http://www.w3.org/2000/svg">
<path fill-rule="evenodd" clip-rule="evenodd" d="M12 9C12 7.4087 12.6321 5.88258 13.7574 4.75736C14.8826 3.63214 16.4087 3 18 3C19.5913 3 21.1174 3.63214 22.2426 4.75736C23.3679 5.88258 24 7.4087 24 9V18C24 19.5913 23.3679 21.1174 22.2426 22.2426C21.1174 23.3679 19.5913 24 18 24C16.4087 24 14.8826 23.3679 13.7574 22.2426C12.6321 21.1174 12 19.5913 12 18V9Z" fill="#B8B8B8"/>
<path d="M19.125 34.3363H16.875H9.06844C8.53375 34.3363 8.10029 33.9028 8.10029 33.3681C8.10029 32.8334 8.53374 32.4 9.06844 32.4H16.875V28.44C14.2998 28.1625 11.9181 26.943 10.1876 25.0159C8.45708 23.0888 7.49989 20.5901 7.5 18V16C7.5 15.4477 7.94772 15 8.5 15H8.75C9.30228 15 9.75 15.4477 9.75 16V18C9.75 20.188 10.6192 22.2865 12.1664 23.8336C13.7135 25.3808 15.812 26.25 18 26.25C20.188 26.25 22.2865 25.3808 23.8336 23.8336C25.3808 22.2865 26.25 20.188 26.25 18V16C26.25 15.4477 26.6977 15 27.25 15H27.5C28.0523 15 28.5 15.4477 28.5 16V18C28.5001 20.5901 27.5429 23.0888 25.8124 25.0159C24.0819 26.943 21.7002 28.1625 19.125 28.44V32.4H26.9321C27.4668 32.4 27.9003 32.8334 27.9003 33.3681C27.9003 33.9028 27.4668 34.3363 26.9321 34.3363H19.125Z" fill="#B8B8B8"/>
</svg>
