<svg width="24" height="24" viewBox="0 0 24 24" fill="none" xmlns="http://www.w3.org/2000/svg">
<path d="M11.1429 21.1932C11.8204 21.1932 12.309 20.6947 12.309 20.027V4.13001C12.309 3.4623 11.8204 2.9043 11.1231 2.9043C10.6346 2.9043 10.3059 3.1233 9.77743 3.62173L5.382 7.77801C5.30958 7.83853 5.21748 7.8704 5.12314 7.86758H2.16257C0.757714 7.86758 0 8.63472 0 10.13V13.997C0 15.4923 0.757286 16.2599 2.163 16.2599H5.12314C5.22257 16.2599 5.31214 16.2899 5.382 16.3494L9.77743 20.5452C10.2557 20.9939 10.6543 21.1932 11.1429 21.1932ZM20.781 19.16C21.1693 19.4189 21.648 19.3194 21.927 18.9209C23.2427 17.0866 24 14.645 24 12.0937C24 9.53215 23.2526 7.09015 21.927 5.2563C21.6381 4.86758 21.1693 4.76773 20.781 5.02701C20.4021 5.2863 20.3421 5.77444 20.6413 6.20301C21.7277 7.79773 22.3954 9.89087 22.3954 12.0933C22.3954 14.2962 21.7474 16.409 20.631 17.984C20.3524 18.4126 20.4021 18.9012 20.781 19.16ZM16.8039 16.4686C17.1429 16.7082 17.631 16.6284 17.9203 16.2397C18.6977 15.1932 19.1661 13.658 19.1661 12.0933C19.1661 10.529 18.6879 9.00373 17.9203 7.93744C17.6314 7.54873 17.1531 7.46901 16.8039 7.70815C16.3654 7.99701 16.3153 8.5053 16.6346 8.94372C17.2127 9.72115 17.5616 10.9074 17.5616 12.0937C17.5616 13.28 17.193 14.4654 16.6247 15.2527C16.3256 15.6813 16.3753 16.1694 16.8039 16.4686Z" fill="url(#paint0_linear_4852_7)"/>
<defs>
<linearGradient id="paint0_linear_4852_7" x1="0" y1="2.9043" x2="17.6337" y2="26.0445" gradientUnits="userSpaceOnUse">
<stop stop-color="#CACACA"/>
<stop offset="1" stop-color="#8C8C8C"/>
</linearGradient>
</defs>
</svg>
